<?xml version="1.0" encoding="UTF-8"?>
<!DOCTYPE svg PUBLIC "-//W3C//DTD SVG 1.1//EN" "http://www.w3.org/Graphics/SVG/1.1/DTD/svg11.dtd">
<!-- Creator: CorelDRAW 2020 (64-Bit) -->
<svg xmlns="http://www.w3.org/2000/svg" xml:space="preserve" width="163.573mm" height="60.0799mm" version="1.1" style="shape-rendering:geometricPrecision; text-rendering:geometricPrecision; image-rendering:optimizeQuality; fill-rule:evenodd; clip-rule:evenodd"
viewBox="0 0 12339.29 4532.17"
 xmlns:xlink="http://www.w3.org/1999/xlink"
 xmlns:xodm="http://www.corel.com/coreldraw/odm/2003">
 <defs>
  <style type="text/css">
   <![CDATA[
    .fil1 {fill:#6C8269}
    .fil0 {fill:#231F27}
   ]]>
  </style>
 </defs>
 <g id="Layer_x0020_1">
  <metadata id="CorelCorpID_0Corel-Layer"/>
  <g id="_2931247183136">
   <path class="fil0" d="M206.2 3749.71l-206.2 0c0,0 5.56,-3.94 16.69,-11.78 11.12,-7.87 21.93,-21.25 32.4,-40.24 10.47,-18.99 15.71,-44.84 15.71,-77.59l0 -1215.62c0,-32.72 -5.24,-58.58 -15.71,-77.56 -10.47,-18.99 -21.28,-32.43 -32.4,-40.28 -11.13,-7.85 -16.69,-11.78 -16.69,-11.78l705.01 0c155.8,2.62 275.25,43.21 358.4,121.76 83.12,78.56 124.68,174.79 124.68,288.69 0,78.55 -16.35,143.04 -49.09,193.44 -32.72,50.38 -72.97,89.66 -120.77,117.81 -47.77,28.15 -95.58,48.46 -143.36,60.9 -47.78,12.43 -88.05,19.64 -120.77,21.61 -32.74,1.95 -49.09,2.94 -49.09,2.94l-498.82 0 0 667.68zm365.27 -689.3l0 0c150.55,0 265.12,-36 343.68,-108.02 78.53,-72 117.83,-161.02 117.83,-267.07 0,-107.37 -38.96,-199.01 -116.86,-274.94 -77.9,-75.93 -182.98,-113.92 -315.19,-113.92l-394.73 0 0 763.95 365.27 0zm1665.39 689.3l0 0 -271.03 0c0,0 5.57,-3.94 16.69,-11.78 11.15,-7.87 21.94,-21.25 32.43,-40.24 10.47,-18.99 15.69,-44.84 15.69,-77.59l0 -335.81c0,-81.18 -5.56,-154.51 -16.69,-219.94 -11.13,-65.46 -34.69,-117.17 -70.68,-155.16 -36,-37.94 -91.33,-58.91 -165.95,-62.82l-13.74 0c-52.38,0 -105.4,12.43 -159.08,37.31 -53.68,24.85 -99.49,66.09 -137.46,123.71l0 612.71c0,32.75 5.57,58.59 16.69,77.59 11.12,18.99 21.93,32.38 32.4,40.24 10.49,7.85 15.71,11.78 15.71,11.78l-271 0c0,0 5.57,-3.94 16.69,-11.78 11.13,-7.87 22.25,-21.25 33.4,-40.24 11.12,-18.99 16.69,-44.84 16.69,-77.59l0 -1215.62c0,-32.72 -5.57,-58.58 -16.69,-77.56 -11.15,-18.99 -22.28,-32.43 -33.4,-40.28 -11.12,-7.85 -16.69,-11.78 -16.69,-11.78 0,0 23.25,-2.92 69.71,-8.82 46.47,-5.91 91.96,-19.97 136.49,-42.24l0 738.4c70.69,-90.31 174.11,-138.77 310.28,-145.3l11.78 0c104.73,0 184.61,21.28 239.6,63.83 54.99,42.53 92.61,99.15 112.92,169.86 20.28,70.68 30.41,148.59 30.41,233.69l0 333.85c0,32.74 5.57,58.92 16.72,78.57 11.13,19.63 21.93,33.35 32.4,41.22 10.47,7.85 15.72,11.78 15.72,11.78zm773.78 0l0 0c-26.19,0 -50.07,-9.5 -71.66,-28.47 -21.62,-18.96 -34.38,-55.96 -38.31,-110.95 -28.81,39.27 -65.15,72.34 -109.01,99.18 -43.82,26.81 -99.81,40.24 -167.9,40.24 -18.34,0 -38.62,-1.31 -60.87,-3.94 -77.24,-11.78 -139.45,-39.91 -186.57,-84.43 -47.12,-44.52 -70.69,-95.58 -70.69,-153.17 0,-13.1 1.31,-26.84 3.92,-41.25 24.89,-89.02 76.58,-148.94 155.14,-179.67 78.57,-30.77 153.17,-54.68 223.88,-71.7 31.43,-7.85 73.01,-19.31 124.7,-34.37 51.72,-15.06 80.87,-35.02 87.4,-59.9l1.97 -29.44c0,-30.12 -4.25,-64.15 -12.78,-102.14 -8.5,-37.97 -26.84,-71.02 -54.99,-99.15 -28.15,-28.15 -70.34,-44.84 -126.65,-50.09l-11.78 0c-26.18,0 -58.92,4.59 -98.2,13.75 -39.25,9.18 -77.56,26.18 -114.87,51.05 -37.33,24.88 -67.12,59.56 -89.39,104.09 13.1,-6.53 26.21,-9.81 39.3,-9.81 23.57,0 43.22,8.18 58.91,24.55 15.71,16.35 23.58,35.66 23.58,57.93 0,22.25 -7.87,41.53 -23.58,57.9 -15.69,16.38 -35.34,24.56 -58.91,24.56 -44.52,0 -72.02,-27.5 -82.46,-82.47l0 -5.91c0,-23.56 5.56,-45.8 16.66,-66.77 11.13,-20.94 22.59,-39.28 34.38,-54.99 37.97,-48.46 85.11,-83.46 141.41,-105.06 56.28,-21.59 111.93,-32.4 166.92,-32.4 102.09,3.94 176.73,27.16 223.88,69.71 47.1,42.53 76.91,91.31 89.34,146.3 12.44,54.99 18.66,100.8 18.66,137.46l0 359.39c0,31.41 1.97,68.74 5.88,111.95 13.12,40.59 36.03,60.87 68.77,60.87 0,0 -9.5,7.88 -28.49,23.59 -18.99,15.67 -44.84,23.54 -77.58,23.54zm-351.53 -31.4l0 0c51.09,0 97.55,-14.07 139.43,-42.22 41.9,-28.15 75.96,-63.83 102.14,-107.04l0 -404.55c-36.65,26.18 -87.08,47.77 -151.2,64.8 -64.15,17.03 -124.08,41.9 -179.73,74.64 -55.63,32.72 -90.65,87.06 -105.05,162.99l0 27.5c0,23.59 4.27,52.34 12.77,86.4 8.5,34.05 25.87,64.15 52.06,90.36 26.18,26.18 63.47,41.9 111.92,47.12l17.66 0zm781.68 31.4l0 0 -270.98 0c0,0 5.56,-3.94 16.66,-11.78 11.13,-7.87 21.93,-21.25 32.4,-40.24 10.47,-18.99 15.72,-44.84 15.72,-77.59l0 -620.56c0,-32.75 -5.25,-58.61 -15.72,-77.59 -10.47,-18.99 -21.27,-32.72 -32.4,-41.22 -11.1,-8.52 -16.66,-12.78 -16.66,-12.78 0,0 22.88,-2.93 68.71,-8.84 45.83,-5.88 91.65,-19.31 137.48,-40.24l-1.97 149.23c11.78,-14.4 29.76,-33.4 54,-56.96 24.22,-23.54 55.65,-45.15 94.27,-64.78 38.62,-19.65 83.43,-29.47 134.52,-29.47l27.5 1.97c57.62,6.53 103.43,20.93 137.46,43.21 34.05,22.25 55.65,45.79 64.81,70.68 6.56,14.41 9.84,28.15 9.84,41.25 0,28.81 -13.75,52.37 -41.25,70.71 -13.12,6.53 -26.21,9.81 -39.3,9.81 -28.78,0 -53,-13.75 -72.62,-41.25 -6.56,-13.09 -9.84,-26.84 -9.84,-41.24 0,-28.81 13.74,-53.02 41.24,-72.67 13.1,-6.53 26.16,-9.79 39.28,-9.79 -43.19,-28.81 -87.72,-45.18 -133.55,-49.12l-21.59 0c-49.77,0 -94.59,10.81 -134.52,32.41 -39.94,21.62 -72.67,45.81 -98.21,72.65 -25.53,26.84 -42.87,49.43 -52.03,67.76l0 606.81c1.31,32.75 7.22,58.59 17.66,77.59 10.47,18.99 21.28,32.38 32.41,40.24 11.12,7.85 16.69,11.78 16.69,11.78zm2056.17 0l0 0 -270.95 0c0,0 5.56,-3.94 16.66,-11.78 11.12,-7.87 22.25,-21.25 33.37,-40.24 11.13,-18.99 16.69,-44.84 16.69,-77.59l0 -335.81c0,-78.55 -5.56,-150.89 -16.69,-217.01 -11.13,-66.11 -32.72,-119.48 -64.78,-160.07 -32.08,-40.56 -80.2,-60.85 -144.35,-60.85l-25.53 1.97c-61.53,7.85 -113.9,32.06 -157.11,72.62 -43.21,40.59 -73.96,87.08 -92.27,139.45 0,0 1.96,19.33 5.88,57.93 3.93,38.62 5.9,86.08 5.9,142.38l0 359.37c0,32.75 5.57,58.59 16.69,77.59 11.1,18.99 21.91,32.38 32.38,40.24 10.49,7.85 15.71,11.78 15.71,11.78l-270.98 0c0,0 5.56,-3.94 16.69,-11.78 11.1,-7.87 21.91,-21.25 32.38,-40.24 10.47,-18.99 15.72,-44.84 15.72,-77.59l0 -377.05c-1.31,-73.31 -9.16,-139.74 -23.57,-199.32 -14.4,-59.59 -37.97,-107.36 -70.68,-143.38 -32.74,-35.98 -77.92,-53.97 -135.54,-53.97l-21.57 0c-52.38,6.53 -98.53,25.84 -138.48,57.9 -39.94,32.09 -72.31,66.46 -97.19,103.11l0 612.71c0,32.75 5.57,58.59 16.69,77.59 11.12,18.99 21.91,32.38 32.38,40.24 10.49,7.85 15.71,11.78 15.71,11.78l-270.98 0c0,0 5.57,-3.94 16.69,-11.78 11.13,-7.87 21.91,-21.25 32.38,-40.24 10.46,-18.99 15.71,-44.84 15.71,-77.59l0 -620.56c0,-32.75 -5.25,-58.61 -15.71,-77.59 -10.47,-18.99 -21.26,-32.72 -32.38,-41.22 -11.12,-8.52 -16.69,-12.78 -16.69,-12.78 0,0 22.91,-2.93 68.72,-8.84 45.83,-5.88 91.64,-19.31 137.47,-40.24l0 143.34c72,-85.06 150.55,-132.21 235.67,-141.37l54.96 -3.94c81.18,0 147.95,19.97 200.32,59.9 52.37,39.91 89.02,88.69 109.99,146.3 0,0 8.84,-15.06 26.5,-45.18 17.68,-30.12 46.15,-60.87 85.43,-92.27 39.27,-31.43 89.68,-52.38 151.2,-62.87 24.87,-2.59 47.78,-3.91 68.74,-3.91 85.11,0 151.2,20.62 198.32,61.86 47.12,41.22 79.87,97.18 98.21,167.89 18.32,70.69 27.5,149.26 27.5,235.66l0 333.85c0,32.74 5.56,58.92 16.66,78.57 11.12,19.63 21.93,33.35 32.4,41.22 10.47,7.85 15.71,11.78 15.71,11.78zm1182.32 0l0 0 -1109.57 0c0,0 5.57,-3.94 16.69,-11.78 11.13,-7.87 21.94,-21.25 32.41,-40.24 10.46,-18.99 15.71,-44.84 15.71,-77.59l0 -1215.62c0,-32.72 -5.25,-58.58 -15.71,-77.56 -10.47,-18.99 -21.28,-32.43 -32.41,-40.28 -11.12,-7.85 -16.69,-11.78 -16.69,-11.78l1109.57 0 39.25 198.37c-52.34,-117.85 -113.89,-176.78 -184.58,-176.78l-760.01 0 0 705.05 622.53 0c35.36,0 67.12,-16.72 95.24,-50.09 28.15,-33.4 45.5,-74.93 52.06,-124.7l0 371.17c-6.56,-51.08 -23.91,-92.98 -52.06,-125.68 -28.12,-32.74 -59.87,-49.12 -95.24,-49.12l-622.53 0 0 703.08 726.6 0c39.28,0 75.62,-12.78 109.02,-38.31 33.37,-25.53 62.52,-55.99 87.37,-91.33 24.87,-35.36 44.52,-70.05 58.92,-104.08l-76.58 257.25zm1498.45 0l0 0c-94.24,0 -180.67,-22.88 -259.22,-68.71 -35.34,-22.28 -66.44,-49.43 -93.28,-81.52 -26.84,-32.09 -40.28,-65.8 -40.28,-101.12 0,-45.83 28.15,-73.33 84.46,-82.49l3.94 0c45.78,6.53 71.34,32.09 76.56,76.59l0 5.9c0,45.81 -27.5,73.31 -82.47,82.47 -5.22,0 -11.78,-0.66 -19.62,-1.97 31.4,41.9 69.37,73.33 113.87,94.27 44.52,20.96 87.41,34.37 128.66,40.27 41.22,5.91 69.69,8.84 85.4,8.84 39.28,0 82.83,-5.9 130.61,-17.68 47.78,-11.78 88.68,-31.74 122.73,-59.9 34.03,-28.15 51.06,-67.77 51.06,-118.83l0 -15.69c-9.16,-56.31 -52.06,-96.9 -128.64,-121.77 -76.59,-24.87 -160.39,-49.43 -251.35,-73.65 -90.99,-24.21 -163.36,-64.47 -217.01,-120.77 -2.63,-3.93 -8.19,-13.43 -16.69,-28.49 -8.52,-15.06 -12.77,-35.02 -12.77,-59.9 0,-11.75 1.97,-24.85 5.9,-39.25 10.47,-30.12 24.22,-53.37 41.25,-69.74 17,-16.35 25.5,-24.53 25.5,-24.53l0 9.81c0,44.52 9.16,77.24 27.5,98.2 45.83,47.12 115.88,81.15 210.13,102.12 94.27,20.93 182.64,49.09 265.13,84.46 82.49,35.34 129.61,99.46 141.4,192.44l0 15.72c0,78.53 -38.96,143.99 -116.83,196.38 -77.93,52.37 -169.89,78.53 -275.94,78.53zm-661.83 -182.64l0 0c2.63,-13.09 3.93,-25.53 3.93,-37.31 0,-23.56 -3.93,-43.19 -11.78,-58.9 -7.82,-15.71 -15.69,-26.84 -23.54,-33.4 -30.12,-23.57 -69.4,-42.88 -117.86,-57.93 -48.43,-15.06 -100.8,-29.78 -157.1,-44.18 -56.31,-14.41 -109.33,-32.07 -159.06,-53.02 -49.76,-20.94 -91.01,-49.41 -123.73,-85.43 -32.75,-36 -49.09,-83.46 -49.09,-142.36l0 -7.87c3.94,-66.78 36.97,-121.43 99.18,-163.96 62.18,-42.55 143.67,-63.83 244.5,-63.83 81.15,0 153.17,17.66 216.01,53.02 28.81,14.4 58.92,35.98 90.33,64.78 31.4,28.81 47.12,61.55 47.12,98.2l0 7.87c-9.16,52.37 -36.65,78.53 -82.46,78.53l-3.94 0c-52.37,-11.78 -78.55,-39.25 -78.55,-82.46l0 -3.94c10.46,-52.37 37.31,-78.55 80.52,-78.55l15.69 0c-41.87,-44.53 -90.31,-74.94 -145.3,-91.31 -54.99,-16.37 -102.12,-24.56 -141.39,-24.56 -69.4,0 -127.98,13.44 -175.77,40.28 -47.8,26.82 -72.99,63.15 -75.62,108.97l0 5.9c0,44.52 15.38,79.22 46.15,104.11 30.78,24.85 70.37,44.82 118.8,59.87 48.44,15.06 100.17,29.47 155.16,43.22 54.97,13.74 106.68,30.43 155.14,50.08 48.44,19.63 88.34,46.47 119.78,80.5 18.34,24.87 27.5,51.05 27.5,78.55 0,18.34 -3.28,36.03 -9.81,53.03 -19.65,44.52 -41.25,78.55 -64.83,102.11zm-294.54 182.64l0 0c87.69,0 160.36,-15.06 217.97,-45.16 57.62,-30.12 104.06,-66.77 139.43,-109.99 35.34,-43.21 62.52,-85.4 81.52,-126.65 18.97,-41.24 32.41,-74.33 40.25,-99.2 30.09,-92.94 62.5,-182.3 97.21,-268.04 34.69,-85.77 88.7,-152.23 162.01,-199.35 72,-39.26 147.3,-58.91 225.82,-58.91l5.9 0c100.83,0 193.76,38.62 278.88,115.86l-15.71 -1.96 -3.94 0c-54.99,7.85 -82.49,34.69 -82.49,80.52l0 5.9c5.24,40.59 27.5,66.1 66.78,76.57l15.71 1.96c22.28,0 41.24,-7.53 56.96,-22.56 15.71,-15.06 24.19,-33.71 25.5,-55.97l0 -3.93c0,-27.5 -7.82,-50.75 -23.54,-69.74 -15.71,-18.97 -25.53,-30.44 -29.46,-34.37 -70.71,-64.13 -151.89,-102.75 -243.51,-115.84 -17.03,-1.31 -34.06,-1.97 -51.09,-1.97 -69.37,0 -136.15,13.75 -200.3,41.25 -94.26,48.41 -161.36,118.46 -201.29,210.13 -39.93,91.62 -76.24,187.21 -108.98,286.7 -7.85,23.58 -20.94,55.33 -39.28,95.26 -18.34,39.94 -43.87,80.84 -76.61,122.74 -32.72,41.9 -76.24,77.24 -130.58,106.05 -54.34,28.81 -122.74,43.21 -205.23,43.21l-3.91 0c-15.72,0 -44.21,-2.93 -85.45,-8.84 -41.25,-5.9 -84.44,-19.31 -129.59,-40.27 -45.18,-20.94 -83.48,-52.38 -114.91,-94.27l21.62 1.97c22.25,0 41.56,-8.18 57.93,-24.56 16.37,-16.37 24.56,-35.68 24.56,-57.9 0,-22.25 -8.19,-41.59 -24.56,-57.93 -16.37,-16.37 -35.68,-24.55 -57.93,-24.55 -22.28,0 -41.57,8.18 -57.91,24.55 -16.37,16.35 -24.55,35.68 -24.55,57.93 0,35.32 13.4,69.03 40.24,101.12 26.82,32.08 57.93,59.24 93.28,81.52 77.27,45.83 163.64,68.71 259.25,68.71zm2670.85 1.97l0 0 -271 0c0,0 5.57,-4.25 16.69,-12.78 11.12,-8.5 21.93,-22.22 32.4,-41.22 10.47,-18.99 15.71,-44.84 15.71,-77.59l0 -282.78c0,-13.12 1.31,-28.79 3.94,-47.12 2.59,-18.34 10.47,-37.31 23.56,-56.96l113.9 -176.73 0 563.6c0,32.75 5.56,58.59 16.69,77.59 11.12,18.99 21.93,32.72 32.4,41.22 10.47,8.52 15.71,12.78 15.71,12.78zm699.12 0l0 0c0,0 -5.22,-4.25 -15.69,-12.78 -10.47,-8.5 -21.27,-22.22 -32.4,-41.22 -11.13,-18.99 -16.69,-44.84 -16.69,-77.59l0 -335.81c0,-83.79 -10.15,-161.38 -30.46,-232.7 -20.28,-71.36 -57.62,-128.32 -111.95,-170.85 -54.31,-42.55 -132.55,-63.83 -234.64,-63.83l-17.68 0c-120.46,1.31 -221.91,48.44 -304.4,141.39l0 -139.42c-45.83,22.25 -91.65,36.34 -137.46,42.21 -45.83,5.91 -68.74,8.84 -68.74,8.84 0,0 5.57,3.94 16.69,11.78 11.12,7.87 21.93,21.25 32.4,40.24 10.47,18.97 15.71,44.84 15.71,77.59l1.97 141.39c-39.28,66.78 -77.58,133.86 -114.89,201.29 -37.31,67.43 -76.91,129.3 -118.8,185.58 -41.9,56.3 -88.74,101.79 -140.42,136.51 -51.71,34.69 -111.61,52.03 -179.67,52.03l-25.55 0c-87.71,-6.53 -161.7,-50.09 -221.92,-130.61 -60.21,-80.5 -90.33,-181.64 -90.33,-303.4 0,-31.41 2.63,-62.84 7.85,-94.27l687.36 0 0 -3.91c0,-94.27 -35.68,-179.05 -107.05,-254.35 -71.34,-75.25 -162.67,-112.9 -273.94,-112.9l-1.97 0c-128.3,0 -237.95,45.5 -328.96,136.49 -90.97,90.99 -136.46,200.64 -136.46,328.94 0,128.29 44.52,237.31 133.52,326.97 89.05,89.7 199.66,136.48 331.9,140.42 82.47,0 152.2,-17.34 209.16,-52.03 56.93,-34.69 107.02,-80.2 150.23,-136.51 43.19,-56.28 83.15,-118.15 119.78,-185.58 36.65,-67.4 75.3,-135.17 115.88,-203.25 9.16,-15.72 24.88,-40.59 47.12,-74.6 22.25,-34.05 50.72,-70.39 85.43,-109.01 34.69,-38.62 75.27,-71.68 121.76,-99.15 46.47,-27.5 98.5,-41.24 156.11,-41.24l17.68 0c73.31,3.91 128.3,25.19 164.96,63.81 36.65,38.62 60.55,90.02 71.68,154.17 11.15,64.12 16.69,136.8 16.69,217.97l0 335.81c0,32.75 -5.22,58.59 -15.69,77.59 -10.47,18.99 -21.28,32.72 -32.4,41.22 -11.15,8.52 -16.72,12.78 -16.72,12.78l271 0zm-1205.8 -587.18l0 0 -577.35 0c17.03,-91.65 51.71,-165.95 104.09,-222.91 52.37,-56.91 117.83,-88.68 196.38,-95.21l15.71 0c65.46,0 116.18,16.03 152.2,48.12 36,32.06 61.53,69.03 76.59,110.93 15.03,41.9 24.21,78.9 27.47,110.96 3.27,32.08 4.9,48.12 4.9,48.12zm1743.98 585.22l0 0c-128.3,0 -237.95,-45.47 -328.96,-136.49 -90.97,-90.99 -136.46,-200.64 -136.46,-328.94 0,-128.29 45.5,-238.28 136.46,-329.93 91.01,-91.62 200.66,-137.46 328.96,-137.46 73.33,0 138.11,15.71 194.41,47.12 24.9,13.12 52.4,32.08 82.49,56.93 30.1,24.9 45.16,55.65 45.16,92.33l0 1.97c0,22.25 -7.85,41.57 -23.56,57.93 -15.72,16.37 -35.34,24.55 -58.91,24.55 -22.25,0 -41.56,-8.18 -57.93,-24.55 -16.38,-16.37 -24.56,-35.68 -24.56,-57.93 0,-22.27 8.18,-41.58 24.56,-57.96 16.37,-16.37 35.68,-24.53 57.93,-24.53l9.81 0c-73.31,-57.59 -149.26,-86.4 -227.79,-86.4l-21.61 0c-95.58,9.16 -171.17,53.97 -226.82,134.52 -55.65,80.52 -83.46,181.64 -83.46,303.4 0,120.46 29.78,222.26 89.36,305.38 59.56,83.15 133.2,128.64 220.92,136.51l19.65 0c49.74,0 99.8,-13.1 150.23,-39.3 50.4,-26.18 93.28,-62.84 128.62,-109.99l17.68 21.62c-44.5,48.43 -86.09,83.46 -124.7,105.07 -38.62,21.6 -74.3,34.66 -107.05,39.26 -32.69,4.59 -60.85,6.87 -84.43,6.87zm828.8 0l0 0c-128.3,0 -237.95,-45.47 -328.96,-136.49 -90.97,-90.99 -136.46,-200.64 -136.46,-328.94 0,-128.29 45.5,-238.28 136.46,-329.93 91.01,-91.62 200.66,-137.46 328.96,-137.46 112.58,0 204.25,37.65 274.96,112.9 70.68,75.3 106.02,160.07 106.02,254.35l0 3.91 -685.39 0c-3.93,30.12 -5.88,62.2 -5.88,96.23 0,120.46 29.78,221.6 89.36,303.41 59.56,81.83 133.21,126.67 220.92,134.54l21.62 0c104.71,0 197.04,-50.42 276.88,-151.23l15.71 25.53c-41.87,49.75 -82.47,85.43 -121.74,107.04 -39.3,21.6 -75.3,34.66 -108.05,39.26 -32.69,4.59 -60.85,6.87 -84.43,6.87zm274.96 -583.25l0 0 0 -3.93c0,-9.16 -1.97,-30.78 -5.91,-64.78 -3.93,-34.05 -14.4,-70.39 -31.43,-109.01 -17,-38.62 -44.52,-72.67 -82.49,-102.12 -37.97,-29.46 -90.31,-44.18 -157.11,-44.18 -78.55,0 -143.67,30.78 -195.39,92.28 -51.72,61.55 -86.09,138.79 -103.11,231.75l575.43 0z"/>
   <path class="fil0" d="M1992.85 4324.2l0 109.23 78.11 0c39.91,0 61.22,-16.22 61.22,-54.77 0,-37.89 -21.3,-54.46 -61.22,-54.46l-78.11 0zm-24 204.6l0 0 0 -226.58 104.15 0c49.04,0 83.51,28.05 83.51,76.44 0,48.68 -34.47,76.73 -83.51,76.73l-80.16 0 0 73.41 -24 0z"/>
   <polygon class="fil0" points="2256.98,4528.79 2256.98,4302.21 2280.97,4302.21 2280.97,4403.67 2426.74,4403.67 2426.74,4302.21 2450.76,4302.21 2450.76,4528.79 2426.74,4528.79 2426.74,4425.66 2280.97,4425.66 2280.97,4528.79 "/>
   <path class="fil0" d="M2613.77 4440.52l104.83 0 -39.23 -85.89 -12.51 -29.41 -2.01 0 -12.19 29.41 -38.89 85.89zm-66.63 88.27l0 0 102.48 -226.58 33.47 0 102.82 226.58 -27.06 0 -30.43 -66.6 -124.44 0 -30.46 66.6 -26.38 0z"/>
   <path class="fil0" d="M2906.3 4416.86l86.57 0c35.85,0 54.77,-14.2 54.77,-46.32 0,-32.14 -18.93,-46.35 -54.77,-46.35l-86.57 0 0 92.67zm-24 111.93l0 0 0 -226.58 110.91 0c47.36,0 79.47,24.03 79.47,65.61 0,38.21 -28.08,61.9 -70,62.91l0 1.67c14.89,4.06 23.35,13.87 31.12,27.06l42.61 69.33 -27.72 0 -40.25 -65.61c-11.49,-18.95 -23.34,-27.06 -53.43,-27.06l-48.7 0 0 92.67 -24 0z"/>
   <polygon class="fil0" points="3178.56,4528.79 3178.56,4302.21 3211.35,4302.21 3287.45,4449.99 3307.4,4491.92 3309.07,4491.92 3328.67,4449.99 3404.43,4302.21 3437.56,4302.21 3437.56,4528.79 3413.59,4528.79 3413.59,4369.19 3414.24,4338.72 3412.23,4338.72 3398.02,4369.19 3322.6,4515.26 3293.52,4515.26 3218.13,4369.19 3203.58,4338.72 3201.9,4338.72 3202.53,4369.19 3202.53,4528.79 "/>
   <path class="fil0" d="M3600.28 4440.52l104.83 0 -39.23 -85.89 -12.51 -29.41 -2.04 0 -12.17 29.41 -38.89 85.89zm-66.62 88.27l0 0 102.48 -226.58 33.47 0 102.82 226.58 -27.06 0 -30.46 -66.6 -124.42 0 -30.45 66.6 -26.38 0z"/>
   <path class="fil0" d="M3860.36 4415.5c0,-70.66 46.66,-116.66 112.93,-116.66 58.52,0 102.82,32.81 102.82,84.21l0 4.06 -26.04 0 0 -4.06c0,-38.55 -26.72,-60.89 -76.44,-60.89 -56.48,0 -87.91,31.82 -87.91,93.34 0,61.53 31.43,93.34 87.91,93.34 49.72,0 76.44,-22.32 76.44,-60.89l0 -4.04 26.04 0 0 4.04c0,51.42 -43.96,84.22 -102.82,84.22 -66.26,0 -112.93,-45.99 -112.93,-116.67z"/>
   <polygon class="fil0" points="4182.66,4302.21 4206.64,4302.21 4206.64,4528.77 4182.66,4528.77 "/>
   <path class="fil0" d="M4311.49 4457.09l0 -2.02 24.37 0 0 4.4c0,32.48 20.28,50.07 73.35,50.07 45.33,0 65.95,-12.54 65.95,-38.24 0,-25.35 -15.2,-34.47 -48.36,-41.24l-47.99 -9.14c-36.87,-7.09 -66.29,-22.66 -66.29,-60.19 0,-30.78 26.37,-61.89 91.3,-61.89 63.91,0 92.3,33.81 92.3,75.05l0 2.04 -24.34 0 0 -4.06c0,-32.79 -20.28,-50.4 -69.64,-50.4 -45,0 -65.29,12.87 -65.29,37.55 0,25.69 14.89,33.47 48.36,40.58l47.68 9.47c40.58,7.77 66.62,24.99 66.62,60.19 0,32.45 -27.4,62.89 -90.31,62.89 -66.6,0 -97.72,-31.8 -97.72,-75.08z"/>
   <polygon class="fil0" points="4681.82,4528.79 4681.82,4324.2 4588.48,4324.2 4588.48,4302.21 4798.8,4302.21 4798.8,4324.2 4705.82,4324.2 4705.82,4528.79 "/>
   <polygon class="fil0" points="5033.88,4528.79 5033.88,4302.21 5203.64,4302.21 5203.64,4324.2 5057.88,4324.2 5057.88,4410.79 5198.54,4410.79 5198.54,4432.41 5057.88,4432.41 5057.88,4528.79 "/>
   <path class="fil0" d="M5505.62 4415.5c0,-61.53 -32.14,-93.34 -89.61,-93.34 -57.15,0 -88.95,31.82 -88.95,93.34 0,61.53 31.8,93.34 88.95,93.34 57.47,0 89.61,-31.82 89.61,-93.34zm-203.92 0l0 0c0,-70.66 47,-116.66 114.31,-116.66 67.94,0 114.96,46 114.96,116.66 0,70.68 -47.03,116.67 -114.96,116.67 -67.3,0 -114.31,-45.99 -114.31,-116.67z"/>
   <path class="fil0" d="M5661.54 4416.86l86.57 0c35.85,0 54.77,-14.2 54.77,-46.32 0,-32.14 -18.93,-46.35 -54.77,-46.35l-86.57 0 0 92.67zm-24 111.93l0 0 0 -226.58 110.88 0c47.37,0 79.48,24.03 79.48,65.61 0,38.21 -28.05,61.9 -70,62.91l0 1.67c14.89,4.06 23.35,13.87 31.12,27.06l42.61 69.33 -27.69 0 -40.24 -65.61c-11.52,-18.95 -23.35,-27.06 -53.47,-27.06l-48.67 0 0 92.67 -24 0z"/>
   <polygon class="fil0" points="5933.78,4528.79 5933.78,4302.21 5966.59,4302.21 6042.67,4449.99 6062.61,4491.92 6064.31,4491.92 6083.94,4449.99 6159.67,4302.21 6192.8,4302.21 6192.8,4528.79 6168.8,4528.79 6168.8,4369.19 6169.48,4338.72 6167.47,4338.72 6153.26,4369.19 6077.83,4515.26 6048.76,4515.26 5973.34,4369.19 5958.82,4338.72 5957.12,4338.72 5957.77,4369.19 5957.77,4528.79 "/>
   <path class="fil0" d="M6305.8 4435.13l0 -132.92 24 0 0 131.9c0,51.73 25.36,74.37 78.11,74.37 52.76,0 78.12,-22.64 78.12,-74.37l0 -131.9 24 0 0 132.92c0,62.2 -39.2,97.04 -102.12,97.04 -62.88,0 -102.11,-34.84 -102.11,-97.04z"/>
   <polygon class="fil0" points="6623.34,4528.79 6623.34,4302.21 6647.37,4302.21 6647.37,4506.81 6791.09,4506.81 6791.09,4528.79 "/>
   <path class="fil0" d="M6940.57 4440.52l104.83 0 -39.23 -85.89 -12.51 -29.41 -2.02 0 -12.19 29.41 -38.89 85.89zm-66.62 88.27l0 0 102.45 -226.58 33.5 0 102.8 226.58 -27.04 0 -30.44 -66.6 -124.44 0 -30.46 66.6 -26.37 0z"/>
   <polygon class="fil0" points="7285.88,4528.79 7285.88,4324.2 7192.53,4324.2 7192.53,4302.21 7402.86,4302.21 7402.86,4324.2 7309.87,4324.2 7309.87,4528.79 "/>
   <polygon class="fil0" points="7501.31,4528.79 7501.31,4302.21 7673.42,4302.21 7673.42,4324.2 7525.3,4324.2 7525.3,4404.01 7668.37,4404.01 7668.37,4425.66 7525.3,4425.66 7525.3,4506.81 7673.42,4506.81 7673.42,4528.79 "/>
   <path class="fil0" d="M7806.36 4324.2l0 182.61 74.03 0c57.5,0 85.89,-29.76 85.89,-91.28 0,-61.57 -28.39,-91.33 -85.89,-91.33l-74.03 0zm-24.37 204.6l0 0 0 -226.58 98.4 0c67.99,0 111.28,43.96 111.28,113.31 0,69.33 -43.29,113.27 -111.28,113.27l-98.4 0z"/>
   <path class="fil0" d="M8225.05 4457.09l0 -2.02 24.34 0 0 4.4c0,32.48 20.28,50.07 73.38,50.07 45.31,0 65.95,-12.54 65.95,-38.24 0,-25.35 -15.21,-34.47 -48.36,-41.24l-48.02 -9.14c-36.87,-7.09 -66.29,-22.66 -66.29,-60.19 0,-30.78 26.38,-61.89 91.34,-61.89 63.9,0 92.3,33.81 92.3,75.05l0 2.04 -24.36 0 0 -4.06c0,-32.79 -20.28,-50.4 -69.64,-50.4 -44.98,0 -65.27,12.87 -65.27,37.55 0,25.69 14.87,33.47 48.34,40.58l47.71 9.47c40.58,7.77 66.62,24.99 66.62,60.19 0,32.45 -27.4,62.89 -90.31,62.89 -66.62,0 -97.72,-31.8 -97.72,-75.08z"/>
   <polygon class="fil0" points="8518.6,4528.79 8518.6,4302.21 8542.59,4302.21 8542.59,4404.35 8621.39,4404.35 8692.73,4302.21 8721.49,4302.21 8642.01,4414.17 8721.83,4528.79 8693.07,4528.79 8622.07,4427.67 8542.59,4427.67 8542.59,4528.79 "/>
   <polygon class="fil0" points="8820.93,4302.21 8844.93,4302.21 8844.93,4528.77 8820.93,4528.77 "/>
   <polygon class="fil0" points="8959.58,4528.79 8959.58,4302.21 8985.98,4302.21 9104.66,4456.09 9132.04,4493.96 9134.08,4493.96 9133.4,4456.77 9133.4,4302.21 9157.42,4302.21 9157.42,4528.79 9131.01,4528.79 9013.02,4376.62 8984.62,4338.41 8982.92,4338.41 8983.57,4376.28 8983.57,4528.79 "/>
   <path class="fil0" d="M9263.61 4415.5c0,-70.66 46.69,-116.66 112.95,-116.66 58.49,0 102.82,32.81 102.82,84.21l0 4.06 -26.04 0 0 -4.06c0,-38.55 -26.72,-60.89 -76.44,-60.89 -56.47,0 -87.91,31.82 -87.91,93.34 0,61.53 31.43,93.34 87.91,93.34 49.72,0 76.44,-22.32 76.44,-60.89l0 -4.04 26.04 0 0 4.04c0,51.42 -43.99,84.22 -102.82,84.22 -66.26,0 -112.95,-45.99 -112.95,-116.67z"/>
   <path class="fil0" d="M9633.94 4440.52l104.83 0 -39.23 -85.89 -12.51 -29.41 -2.04 0 -12.17 29.41 -38.89 85.89zm-66.63 88.27l0 0 102.46 -226.58 33.49 0 102.83 226.58 -27.07 0 -30.45 -66.6 -124.42 0 -30.46 66.6 -26.38 0z"/>
   <path class="fil0" d="M9926.47 4416.86l86.57 0c35.85,0 54.8,-14.2 54.8,-46.32 0,-32.14 -18.95,-46.35 -54.8,-46.35l-86.57 0 0 92.67zm-24 111.93l0 0 0 -226.58 110.91 0c47.37,0 79.47,24.03 79.47,65.61 0,38.21 -28.08,61.9 -70,62.91l0 1.67c14.89,4.06 23.35,13.87 31.14,27.06l42.58 69.33 -27.72 0 -40.24 -65.61c-11.5,-18.95 -23.35,-27.06 -53.44,-27.06l-48.7 0 0 92.67 -24 0z"/>
   <polygon class="fil0" points="10198.73,4528.79 10198.73,4302.21 10370.85,4302.21 10370.85,4324.2 10222.73,4324.2 10222.73,4404.01 10365.78,4404.01 10365.78,4425.66 10222.73,4425.66 10222.73,4506.81 10370.85,4506.81 10370.85,4528.79 "/>
   <polygon class="fil0" points="2361.4,2555.36 5294.63,2555.36 5294.63,2579.79 2361.4,2579.79 "/>
   <polygon class="fil0" points="7021.94,2555.36 12145.02,2555.36 12145.02,2579.79 7021.94,2579.79 "/>
   <polygon class="fil0" points="2361.4,2439.95 5294.63,2439.95 5294.63,2464.39 2361.4,2464.39 "/>
   <polygon class="fil0" points="7021.94,2439.95 12145.02,2439.95 12145.02,2464.39 7021.94,2464.39 "/>
   <path class="fil1" d="M6099.48 1591.89c-5.05,-101.97 146.4,-101.97 141.32,0 -6.99,81.49 -132.55,84.65 -141.32,0zm-46.78 -330.51l0 0c-141.4,-46.76 -279.07,-113.65 -400.04,-201.02 -8.74,56.52 -11.65,114.16 -7.57,172.67 10.98,122.98 61.47,239.4 136.41,336.98 133.57,-63.18 221.98,-176.3 271.2,-308.63zm-429.33 -222.86l0 0c-36.99,196.26 -2.77,396.07 147.56,575.26 350.99,-141.51 438.05,-593.65 328.21,-923.39 -27.98,-89.12 -73.11,-167.28 -130.5,-234.59 64.14,-72.5 133.08,-139.5 202.14,-199.93 71.17,60.43 137.82,126.48 199.25,196.96 -58,67.58 -103.52,146.35 -131.7,236.49 -80.55,251.4 -58.45,547.86 106.46,760.93 58.83,75.08 138.76,132.72 227.01,167.63 87.91,-108.4 148.56,-241.52 159.49,-381.59 4.1,-67.24 -0.37,-133.08 -11.93,-197.33 270.13,-208.04 436.54,-515.72 379.99,-896.91 -257.33,5.15 -533.04,99.83 -708.95,288.08 -66.26,-73.48 -137.41,-141.42 -208.94,-202.97 37.67,-34.66 86.01,-81.76 86.01,-130.27 0,-13.31 -2.9,-26.02 -7.51,-37.6 -2.63,-5.76 -5.51,-11.27 -8.99,-16.47 -3.45,-5.2 -7.51,-10.12 -11.83,-14.48 -17.66,-17.63 -41.66,-28.34 -68.57,-28.34 -9.81,0 -19.36,1.46 -28.32,4.35 -3.18,0.88 -6.07,2.04 -8.96,3.18 -34.98,14.76 -59.29,49.16 -59.29,89.36 0,48.46 48.21,95.46 85.86,130.1 -72.4,59.61 -144.81,128.93 -212.15,205.3 -170.18,-182.88 -433.94,-279.36 -682.96,-291.09 0,0 -24.12,-1.16 -24.12,-1.16 -24.21,136.21 -9.01,272.78 28.25,401.68 60.82,205.59 190.56,370.93 354.49,496.8zm8.77 -41.1l0 0c-32.18,-26.6 -62.81,-54.95 -91.28,-84.82 -147.44,-149.48 -240.54,-351.79 -255.07,-561.15 -3.4,-50.55 -3.38,-103.2 2.72,-152.27 157,10.73 316.91,54 453.9,132.86 64.57,36.77 123.3,83.3 173.26,137.6 -130.93,156.77 -238.67,339.85 -283.54,527.78zm796.13 -524.06l0 0c143.94,-158.08 363.45,-256.09 625.66,-275.82 12.95,108.7 -0.02,224.56 -29.41,330.2 -51.27,189.39 -166.87,344.89 -314.36,466.59 -44.67,-191.31 -151.32,-367.27 -281.88,-520.97zm260.56 588.38l0 0c8.65,56.18 11.01,113.36 5.59,171.17 -11.49,121.55 -61.68,236.37 -135.88,332.72 -127.25,-59.78 -217.39,-174.96 -265.68,-305.51 143.71,-46.86 278.7,-113.63 395.98,-198.38zm-405.62 170.32l0 0c-3.42,-10.8 -6.61,-21.71 -9.5,-32.66 -69.11,-286.43 -11.29,-527.75 133.82,-702.18 8.09,9.86 16.08,19.82 23.97,29.85 111.59,143.58 211.11,311.45 249.26,490.75 -119.33,92.38 -257.15,163.76 -397.55,214.24zm-346.86 -738.85l0 0c52.28,62.28 93.4,133.76 119.29,211.93 55.55,162.33 61.75,358.81 6.73,528.35 -108.52,-39.49 -213.75,-88.21 -310.81,-149.67 -31.29,-19.77 -61.96,-41.24 -91.57,-64.17 39.63,-192.43 145.91,-371.08 276.37,-526.44zm234.23 -256.38l0 0 0.02 0 0 0.02 -0.02 -0.02zm-84.02 1355.07l0 0c-4.03,120.84 172.44,121.91 168.77,0 -8.04,-101.44 -159.15,-103.16 -168.77,0z"/>
  </g>
 </g>
</svg>
